<mxfile host="app.diagrams.net" modified="2022-04-27T07:10:34.617Z" agent="5.0 (Macintosh; Intel Mac OS X 10_15_7) AppleWebKit/537.36 (KHTML, like Gecko) Chrome/100.0.4896.127 Safari/537.36" etag="pFgqPvtEJsuKVcRlnAl0" version="17.1.2" type="github">
  <diagram id="O3ywCFSIsU3IzxFeoSF-" name="Page-1">
    <mxGraphModel dx="2075" dy="1978" grid="1" gridSize="10" guides="1" tooltips="1" connect="1" arrows="1" fold="1" page="1" pageScale="1" pageWidth="827" pageHeight="1169" math="0" shadow="0">
      <root>
        <mxCell id="0" />
        <mxCell id="1" parent="0" />
        <mxCell id="CZqsSSTKb6cRyH_K0-rR-1" value="event1(邀请)" style="rounded=0;whiteSpace=wrap;html=1;" parent="1" vertex="1">
          <mxGeometry x="-50" y="120" width="120" height="60" as="geometry" />
        </mxCell>
        <mxCell id="CZqsSSTKb6cRyH_K0-rR-2" value="event3(提现)" style="rounded=0;whiteSpace=wrap;html=1;" parent="1" vertex="1">
          <mxGeometry x="190" y="310" width="120" height="60" as="geometry" />
        </mxCell>
        <mxCell id="CZqsSSTKb6cRyH_K0-rR-3" value="event2" style="rounded=0;whiteSpace=wrap;html=1;" parent="1" vertex="1">
          <mxGeometry x="420" y="210" width="120" height="60" as="geometry" />
        </mxCell>
        <mxCell id="CZqsSSTKb6cRyH_K0-rR-4" value="" style="endArrow=classic;html=1;" parent="1" edge="1">
          <mxGeometry width="50" height="50" relative="1" as="geometry">
            <mxPoint x="-110" y="130" as="sourcePoint" />
            <mxPoint x="-50" y="130" as="targetPoint" />
          </mxGeometry>
        </mxCell>
        <mxCell id="CZqsSSTKb6cRyH_K0-rR-5" value="" style="endArrow=classic;html=1;" parent="1" edge="1">
          <mxGeometry width="50" height="50" relative="1" as="geometry">
            <mxPoint x="-110" y="149.5" as="sourcePoint" />
            <mxPoint x="-50" y="149.5" as="targetPoint" />
          </mxGeometry>
        </mxCell>
        <mxCell id="CZqsSSTKb6cRyH_K0-rR-6" value="" style="endArrow=classic;html=1;" parent="1" edge="1">
          <mxGeometry width="50" height="50" relative="1" as="geometry">
            <mxPoint x="-110" y="170" as="sourcePoint" />
            <mxPoint x="-50" y="170" as="targetPoint" />
          </mxGeometry>
        </mxCell>
        <mxCell id="CZqsSSTKb6cRyH_K0-rR-7" value="" style="endArrow=classic;html=1;exitX=1;exitY=0.75;exitDx=0;exitDy=0;entryX=0.25;entryY=0;entryDx=0;entryDy=0;" parent="1" source="CZqsSSTKb6cRyH_K0-rR-1" target="CZqsSSTKb6cRyH_K0-rR-3" edge="1">
          <mxGeometry width="50" height="50" relative="1" as="geometry">
            <mxPoint x="360" y="170" as="sourcePoint" />
            <mxPoint x="440" y="200" as="targetPoint" />
            <Array as="points">
              <mxPoint x="410" y="165" />
            </Array>
          </mxGeometry>
        </mxCell>
        <mxCell id="CZqsSSTKb6cRyH_K0-rR-8" value="" style="endArrow=classic;html=1;exitX=1;exitY=0.5;exitDx=0;exitDy=0;entryX=0.5;entryY=0;entryDx=0;entryDy=0;" parent="1" source="CZqsSSTKb6cRyH_K0-rR-1" target="CZqsSSTKb6cRyH_K0-rR-3" edge="1">
          <mxGeometry width="50" height="50" relative="1" as="geometry">
            <mxPoint x="330" y="175" as="sourcePoint" />
            <mxPoint x="460" y="220" as="targetPoint" />
            <Array as="points">
              <mxPoint x="420" y="150" />
            </Array>
          </mxGeometry>
        </mxCell>
        <mxCell id="CZqsSSTKb6cRyH_K0-rR-9" value="" style="endArrow=classic;html=1;exitX=1;exitY=0.25;exitDx=0;exitDy=0;entryX=0.75;entryY=0;entryDx=0;entryDy=0;" parent="1" source="CZqsSSTKb6cRyH_K0-rR-1" target="CZqsSSTKb6cRyH_K0-rR-3" edge="1">
          <mxGeometry width="50" height="50" relative="1" as="geometry">
            <mxPoint x="330" y="130" as="sourcePoint" />
            <mxPoint x="490" y="190" as="targetPoint" />
            <Array as="points">
              <mxPoint x="430" y="135" />
            </Array>
          </mxGeometry>
        </mxCell>
        <mxCell id="CZqsSSTKb6cRyH_K0-rR-10" value="" style="endArrow=classic;html=1;" parent="1" edge="1">
          <mxGeometry width="50" height="50" relative="1" as="geometry">
            <mxPoint x="-40" y="340" as="sourcePoint" />
            <mxPoint x="190" y="339.5" as="targetPoint" />
          </mxGeometry>
        </mxCell>
        <mxCell id="MfEOAPVl19Ot6d2oyerR-1" value="实时稽核" style="edgeLabel;html=1;align=center;verticalAlign=middle;resizable=0;points=[];" vertex="1" connectable="0" parent="CZqsSSTKb6cRyH_K0-rR-10">
          <mxGeometry x="-0.8222" y="-1" relative="1" as="geometry">
            <mxPoint as="offset" />
          </mxGeometry>
        </mxCell>
        <mxCell id="CZqsSSTKb6cRyH_K0-rR-11" value="" style="endArrow=classic;html=1;exitX=0.5;exitY=1;exitDx=0;exitDy=0;entryX=1;entryY=0.5;entryDx=0;entryDy=0;" parent="1" source="CZqsSSTKb6cRyH_K0-rR-3" target="CZqsSSTKb6cRyH_K0-rR-2" edge="1">
          <mxGeometry width="50" height="50" relative="1" as="geometry">
            <mxPoint x="410" y="310" as="sourcePoint" />
            <mxPoint x="540" y="355" as="targetPoint" />
            <Array as="points">
              <mxPoint x="440" y="340" />
            </Array>
          </mxGeometry>
        </mxCell>
        <mxCell id="CZqsSSTKb6cRyH_K0-rR-12" value="结果：打击数量/过滤数量" style="edgeLabel;html=1;align=center;verticalAlign=middle;resizable=0;points=[];" parent="CZqsSSTKb6cRyH_K0-rR-11" vertex="1" connectable="0">
          <mxGeometry x="-0.3337" y="2" relative="1" as="geometry">
            <mxPoint y="-1" as="offset" />
          </mxGeometry>
        </mxCell>
        <mxCell id="CZqsSSTKb6cRyH_K0-rR-13" value="" style="endArrow=classic;html=1;exitX=0.5;exitY=1;exitDx=0;exitDy=0;" parent="1" source="CZqsSSTKb6cRyH_K0-rR-2" edge="1">
          <mxGeometry width="50" height="50" relative="1" as="geometry">
            <mxPoint x="230" y="470" as="sourcePoint" />
            <mxPoint x="250" y="480" as="targetPoint" />
          </mxGeometry>
        </mxCell>
        <mxCell id="CZqsSSTKb6cRyH_K0-rR-14" value="hitcode" style="edgeLabel;html=1;align=center;verticalAlign=middle;resizable=0;points=[];" parent="CZqsSSTKb6cRyH_K0-rR-13" vertex="1" connectable="0">
          <mxGeometry x="-0.0364" y="2" relative="1" as="geometry">
            <mxPoint as="offset" />
          </mxGeometry>
        </mxCell>
        <mxCell id="8K72jAy03FJSQNKGbFzH-1" value="Redis" style="shape=cylinder3;whiteSpace=wrap;html=1;boundedLbl=1;backgroundOutline=1;size=15;" parent="1" vertex="1">
          <mxGeometry x="320" y="-50" width="60" height="80" as="geometry" />
        </mxCell>
        <mxCell id="8K72jAy03FJSQNKGbFzH-2" value="" style="shape=flexArrow;endArrow=classic;html=1;" parent="1" edge="1">
          <mxGeometry width="50" height="50" relative="1" as="geometry">
            <mxPoint x="349.5" y="100" as="sourcePoint" />
            <mxPoint x="349.5" y="50" as="targetPoint" />
          </mxGeometry>
        </mxCell>
        <mxCell id="8K72jAy03FJSQNKGbFzH-3" value="list存储事件明细，最多保留50条 lpush/lpop" style="edgeLabel;html=1;align=center;verticalAlign=middle;resizable=0;points=[];" parent="8K72jAy03FJSQNKGbFzH-2" vertex="1" connectable="0">
          <mxGeometry x="-0.44" relative="1" as="geometry">
            <mxPoint x="1" as="offset" />
          </mxGeometry>
        </mxCell>
        <mxCell id="8K72jAy03FJSQNKGbFzH-4" value="key：uid+提现事件事件名称&lt;br&gt;value: 写入事件体" style="text;html=1;strokeColor=none;fillColor=none;align=center;verticalAlign=middle;whiteSpace=wrap;rounded=0;" parent="1" vertex="1">
          <mxGeometry x="420" y="-40" width="150" height="60" as="geometry" />
        </mxCell>
        <mxCell id="8K72jAy03FJSQNKGbFzH-5" value="&lt;b&gt;写入到事件3 assist_number_${event2}_${code}&lt;br&gt;&lt;/b&gt;&lt;b&gt;&amp;nbsp;assist_number_${event1}_${code}&lt;/b&gt;&lt;b&gt;&lt;br&gt;&lt;/b&gt;" style="text;html=1;strokeColor=none;fillColor=none;align=center;verticalAlign=middle;whiteSpace=wrap;rounded=0;" parent="1" vertex="1">
          <mxGeometry x="370" y="350" width="250" height="50" as="geometry" />
        </mxCell>
        <mxCell id="8K72jAy03FJSQNKGbFzH-6" value="event3触发&lt;br&gt;拉取Redis对应邀请事件，过event2" style="text;html=1;strokeColor=none;fillColor=none;align=center;verticalAlign=middle;whiteSpace=wrap;rounded=0;" parent="1" vertex="1">
          <mxGeometry x="298" y="210" width="116" height="60" as="geometry" />
        </mxCell>
        <mxCell id="8K72jAy03FJSQNKGbFzH-8" value="通过rainbow配置对应事件:&lt;br&gt;{&quot;event3&quot;:[&quot;event1&quot;,&quot;event2&quot;],&quot;xxx&quot;:[yyy,zzz]}" style="text;html=1;strokeColor=none;fillColor=none;align=center;verticalAlign=middle;whiteSpace=wrap;rounded=0;" parent="1" vertex="1">
          <mxGeometry x="580" y="160" width="280" height="150" as="geometry" />
        </mxCell>
        <mxCell id="E_eqaHaKtucu1fXLnEMp-1" value="风控引擎&lt;br&gt;(加入hit_code到事件)" style="rounded=0;whiteSpace=wrap;html=1;" parent="1" vertex="1">
          <mxGeometry x="120" y="120" width="120" height="60" as="geometry" />
        </mxCell>
        <mxCell id="E_eqaHaKtucu1fXLnEMp-2" value="flink&lt;br&gt;(消费含有打击码数据)" style="rounded=0;whiteSpace=wrap;html=1;" parent="1" vertex="1">
          <mxGeometry x="298" y="125" width="112" height="55" as="geometry" />
        </mxCell>
      </root>
    </mxGraphModel>
  </diagram>
</mxfile>
